####
# Object diamond.obj
#
# Vertices: 57
# Faces: 110
#
####
vn -2.241868 -4.947933 0.990094
v -59.637100 -70.734352 3.738998
vn 1.964045 -5.236629 -0.000122
v 66.459610 -71.152466 0.000000
vn 1.707942 -4.926107 2.023895
v 62.122765 -65.894119 34.274597
vn 0.978486 -4.041625 3.739928
v 49.768299 -50.914589 63.339630
vn -0.113334 -2.717807 4.886700
v 31.277122 -28.494423 82.761497
vn -1.401276 -1.156203 5.289495
v 9.464447 -2.047005 89.583290
vn -2.689258 0.405443 4.886993
v -12.348854 24.401169 82.766418
vn -3.781184 1.729381 3.740465
v -30.841797 46.823486 63.348740
vn -4.510818 2.614048 2.024467
v -43.198929 61.806236 34.286499
vn -4.767075 2.924752 0.000254
v -47.538910 67.068382 0.004288
vn -4.510938 2.614196 -2.023998
v -43.201019 61.808769 -34.278580
vn -3.781410 1.729657 -3.740107
v -30.845657 46.828156 -63.342697
vn -2.689555 0.405803 -4.886800
v -12.353889 24.407265 -82.763138
vn -1.401603 -1.155815 -5.289501
v 9.458992 -2.040398 -89.583298
vn -0.113632 -2.717446 -4.886892
v 31.272079 -28.488316 -82.764786
vn 0.978258 -4.041344 -3.740285
v 49.764431 -50.909904 -63.345718
vn 1.707840 -4.925946 -2.024232
v 62.120682 -65.891602 -34.282532
vn 4.781626 -2.399711 0.012357
v 71.600029 -66.912872 0.000000
vn 4.540775 -2.136738 1.887458
v 67.263184 -61.654530 34.274597
vn 3.874526 -1.254877 3.430146
v 54.908718 -46.674999 63.339630
vn 2.853154 -0.107255 4.548540
v 36.417542 -24.254829 82.761497
vn 1.663451 1.351344 4.919534
v 14.604866 2.192589 89.583290
vn 0.361159 2.766751 4.674788
v -7.208435 28.640762 82.766418
vn -0.777413 4.032894 3.652692
v -25.701385 51.063072 63.348740
vn -1.605072 4.910670 2.026780
v -38.058502 66.045830 34.286499
vn -1.857662 5.230172 0.016310
v -42.398499 71.307976 0.004288
vn -1.780111 4.931796 -2.032218
v -38.060593 66.048363 -34.278580
vn -0.947305 4.046402 -3.727766
v -25.705246 51.067741 -63.342697
vn 0.092393 2.693141 -4.922265
v -7.213470 28.646858 -82.763138
vn 1.496781 1.209846 -5.184896
v 14.599411 2.199188 -89.583298
vn 2.765851 -0.326027 -4.770027
v 36.412498 -24.248722 -82.764786
vn 3.861264 -1.441682 -3.538211
v 54.904846 -46.670311 -63.345718
vn 4.548120 -2.261628 -1.893606
v 67.261093 -61.652008 -34.282532
vn 5.380856 1.776360 0.828080
v 69.906342 -22.723316 20.825424
vn 4.584385 2.715353 2.072267
v 48.062218 3.762230 55.162643
vn 3.449057 3.922879 2.204116
v 17.167366 41.221596 55.166138
vn 2.792522 4.591458 1.694359
v 4.071121 57.100525 41.415009
vn 2.271397 4.988389 0.783124
v -4.679893 67.710945 20.833847
vn 2.131249 4.869682 -1.022545
v -4.681374 67.712730 -27.722260
vn 3.021958 3.829574 -2.380655
v 17.163803 41.225914 -62.057846
vn 4.378685 2.479931 -2.314693
v 48.058643 3.766563 -62.059006
vn 5.328997 1.657291 -0.946856
v 69.904861 -22.721527 -27.725052
vn -2.116555 -5.099872 -0.000064
v -59.163986 -71.307983 0.000000
vn -2.598665 -4.515271 1.829612
v -60.984833 -69.100243 6.909683
vn -3.132795 -3.867644 2.390617
v -63.002029 -66.654434 9.028412
vn -3.762870 -3.103694 2.587684
v -65.381561 -63.769302 9.772598
vn -4.392964 -2.339716 2.390761
v -67.761169 -60.884083 9.028946
vn -4.927149 -1.692034 1.829876
v -69.778549 -58.438046 6.910675
vn -5.284089 -1.259246 0.990397
v -71.126587 -56.803585 3.740295
vn -5.409453 -1.107245 0.000125
v -71.600037 -56.229538 0.000473
vn -5.284151 -1.259174 -0.990161
v -71.126816 -56.803307 -3.739426
vn -4.927258 -1.691897 -1.829697
v -69.778976 -58.437534 -6.910019
vn -4.393106 -2.339541 -2.390674
v -67.761719 -60.883419 -9.028595
vn -3.763025 -3.103507 -2.587681
v -65.382156 -63.768581 -9.772598
vn -3.132944 -3.867470 -2.390720
v -63.002579 -66.653770 -9.028763
vn -2.598774 -4.515134 -1.829795
v -60.985260 -69.099731 -6.910355
vn -2.241860 -4.947886 -0.990274
v -59.637329 -70.734077 -3.739868
# 57 vertices, 0 vertices normals

f 1//1 44//44 43//43
f 44//44 45//45 46//46
f 44//44 46//46 47//47
f 44//44 47//47 48//48
f 44//44 48//48 49//49
f 44//44 49//49 50//50
f 44//44 50//50 51//51
f 44//44 51//51 52//52
f 44//44 52//52 53//53
f 44//44 53//53 54//54
f 44//44 54//54 55//55
f 44//44 55//55 57//57
f 44//44 57//57 43//43
f 55//55 56//56 57//57
f 43//43 2//2 3//3
f 43//43 3//3 1//1
f 1//1 3//3 4//4
f 1//1 4//4 44//44
f 44//44 4//4 5//5
f 44//44 5//5 45//45
f 45//45 5//5 6//6
f 45//45 6//6 46//46
f 42//42 41//41 40//40
f 42//42 40//40 39//39
f 42//42 39//39 38//38
f 42//42 38//38 37//37
f 42//42 37//37 36//36
f 42//42 36//36 35//35
f 42//42 35//35 34//34
f 18//18 19//19 3//3
f 18//18 3//3 2//2
f 19//19 20//20 4//4
f 19//19 4//4 3//3
f 20//20 21//21 5//5
f 20//20 5//5 4//4
f 21//21 22//22 6//6
f 21//21 6//6 5//5
f 22//22 23//23 7//7
f 22//22 7//7 6//6
f 23//23 24//24 8//8
f 23//23 8//8 7//7
f 24//24 25//25 9//9
f 24//24 9//9 8//8
f 25//25 26//26 10//10
f 25//25 10//10 9//9
f 26//26 27//27 11//11
f 26//26 11//11 10//10
f 27//27 28//28 12//12
f 27//27 12//12 11//11
f 28//28 29//29 13//13
f 28//28 13//13 12//12
f 29//29 30//30 14//14
f 29//29 14//14 13//13
f 30//30 31//31 15//15
f 30//30 15//15 14//14
f 31//31 32//32 16//16
f 31//31 16//16 15//15
f 32//32 33//33 17//17
f 32//32 17//17 16//16
f 33//33 18//18 2//2
f 33//33 2//2 17//17
f 19//19 18//18 34//34
f 18//18 33//33 42//42
f 33//33 32//32 42//42
f 32//32 31//31 41//41
f 31//31 30//30 41//41
f 30//30 29//29 40//40
f 29//29 28//28 40//40
f 28//28 27//27 39//39
f 27//27 26//26 39//39
f 26//26 25//25 38//38
f 25//25 24//24 37//37
f 25//25 37//37 38//38
f 24//24 23//23 36//36
f 24//24 36//36 37//37
f 23//23 22//22 36//36
f 22//22 21//21 35//35
f 21//21 20//20 35//35
f 20//20 19//19 34//34
f 34//34 18//18 42//42
f 35//35 20//20 34//34
f 36//36 22//22 35//35
f 39//39 26//26 38//38
f 40//40 28//28 39//39
f 41//41 30//30 40//40
f 42//42 32//32 41//41
f 46//46 6//6 7//7
f 46//46 7//7 47//47
f 47//47 7//7 8//8
f 47//47 8//8 48//48
f 48//48 8//8 9//9
f 48//48 9//9 49//49
f 49//49 9//9 10//10
f 49//49 10//10 50//50
f 50//50 10//10 11//11
f 50//50 11//11 51//51
f 51//51 11//11 12//12
f 51//51 12//12 52//52
f 52//52 12//12 13//13
f 52//52 13//13 53//53
f 53//53 13//13 14//14
f 53//53 14//14 54//54
f 54//54 14//14 15//15
f 54//54 15//15 55//55
f 55//55 15//15 16//16
f 55//55 16//16 56//56
f 57//57 17//17 2//2
f 57//57 2//2 43//43
f 56//56 16//16 17//17
f 56//56 17//17 57//57
# 110 faces, 0 coords texture

# End of File